<svg width="1370" height="165" viewBox="0 0 1370 165" fill="none" xmlns="http://www.w3.org/2000/svg">
<mask id="mask0_178_443" style="mask-type:luminance" maskUnits="userSpaceOnUse" x="0" y="8" width="145" height="149">
<path d="M144.08 8.50293H0V156.547H144.08V8.50293Z" fill="white"/>
</mask>
<g mask="url(#mask0_178_443)">
<path d="M144.071 12.7033C144.071 11.5893 143.64 10.5205 142.874 9.73324C142.108 8.94595 141.067 8.50293 139.983 8.50293H36.0937C23.9367 8.50293 14.885 11.5238 8.94214 17.5637C4.98354 21.586 2.34447 27.0407 1.02224 33.9269C0.753658 35.3243 1.8154 36.6248 3.2005 36.6248H114.503C115.724 36.6248 116.717 37.6438 116.717 38.8998V153.094C116.717 154.523 117.984 155.615 119.347 155.333C125.966 153.962 131.237 151.263 135.155 147.234C141.101 141.125 144.07 131.819 144.07 119.322L144.071 12.7033Z" fill="#FFB300"/>
<path d="M2.19803 90.889H61.2457C62.4592 90.889 63.4446 91.9107 63.4446 93.1724C63.4446 93.1724 63.4697 142.753 63.4751 154.205C63.4751 155.479 64.4695 156.512 65.6965 156.512H90.2386C91.4531 156.512 92.7815 155.49 92.7815 154.23C92.7815 154.23 92.7815 87.0845 92.7815 63.1299C92.7815 61.762 91.2626 60.6535 89.9448 60.6535C11.2183 60.648 2.19893 60.4053 2.19893 60.4053C0.98539 60.4053 0 61.428 0 62.6887V88.6056C0 89.8663 0.983593 90.889 2.19803 90.889Z" fill="#FFB300"/>
<path fill-rule="evenodd" clip-rule="evenodd" d="M37.5865 114.408C38.1793 114.408 38.7489 114.651 39.1675 115.082C39.5869 115.512 39.8223 116.097 39.8223 116.707V153.872C39.8223 154.481 39.5869 155.066 39.1675 155.498C38.7479 155.928 38.1793 156.17 37.5865 156.17H4.09603C3.01005 156.17 1.96808 155.727 1.20006 154.937C0.432061 154.148 0 153.077 0 151.961V116.707C0 116.098 0.23534 115.512 0.654823 115.082C1.07431 114.651 1.64291 114.408 2.23575 114.408H37.5865Z" fill="#FFB300"/>
</g>
<g clip-path="url(#clip0_178_443)">
<mask id="mask1_178_443" style="mask-type:luminance" maskUnits="userSpaceOnUse" x="242" y="1" width="1128" height="160">
<path d="M1369.49 1.30176H242.768V160.161H1369.49V1.30176Z" fill="white"/>
</mask>
<g mask="url(#mask1_178_443)">
<mask id="mask2_178_443" style="mask-type:luminance" maskUnits="userSpaceOnUse" x="242" y="1" width="1128" height="160">
<path d="M1366.29 1.30176H245.959C244.197 1.30176 242.768 2.78351 242.768 4.61132V156.851C242.768 158.678 244.197 160.161 245.959 160.161H1366.29C1368.06 160.161 1369.48 158.678 1369.48 156.851V4.61132C1369.48 2.78351 1368.06 1.30176 1366.29 1.30176Z" fill="white"/>
</mask>
<g mask="url(#mask2_178_443)">
<path d="M364.857 118.494C366.985 118.494 368.048 119.596 368.048 121.803V136.696C368.048 138.902 366.985 140.005 364.857 140.005H273.092C270.964 140.005 269.9 138.902 269.9 136.696V27.4806C269.9 25.2742 270.964 24.1709 273.092 24.1709H363.261C365.389 24.1709 366.453 25.2742 366.453 27.4806V42.3735C366.453 44.5799 365.389 45.6831 363.261 45.6831H295.275C294.922 45.6831 294.637 45.9794 294.637 46.345V70.6704C294.637 71.0358 294.922 71.3323 295.275 71.3323H358.473C360.602 71.3323 361.665 72.4351 361.665 74.6418V88.7074C361.665 90.9136 360.602 92.017 358.473 92.017H295.275C294.922 92.017 294.637 92.3129 294.637 92.6789V117.832C294.637 118.196 294.922 118.494 295.275 118.494H364.857Z" fill="#FEFEFE"/>
<path d="M438.264 140.005C436.136 140.005 435.072 138.902 435.072 136.696V27.4805C435.072 25.2742 436.136 24.1709 438.264 24.1709H456.617C458.744 24.1709 459.809 25.2742 459.809 27.4805V116.177C459.809 116.542 460.094 116.838 460.447 116.838H528.433C530.561 116.838 531.625 117.941 531.625 120.148V136.696C531.625 138.902 530.561 140.005 528.433 140.005H438.264Z" fill="#FEFEFE"/>
<path d="M686.592 118.494C688.719 118.494 689.784 119.596 689.784 121.803V136.696C689.784 138.902 688.719 140.005 686.592 140.005H594.827C592.698 140.005 591.635 138.902 591.635 136.696V27.4806C591.635 25.2742 592.698 24.1709 594.827 24.1709H684.996C687.124 24.1709 688.187 25.2742 688.187 27.4806V42.3735C688.187 44.5799 687.124 45.6831 684.996 45.6831H617.01C616.657 45.6831 616.371 45.9794 616.371 46.345V70.6704C616.371 71.0358 616.657 71.3323 617.01 71.3323H680.208C682.335 71.3323 683.4 72.4351 683.4 74.6418V88.7074C683.4 90.9136 682.335 92.017 680.208 92.017H617.01C616.657 92.017 616.371 92.3129 616.371 92.6789V117.832C616.371 118.196 616.657 118.494 617.01 118.494H686.592Z" fill="#FEFEFE"/>
<path d="M782.649 140.828C773.074 140.828 765.946 138.4 761.264 133.547C756.583 128.692 754.242 121.301 754.242 111.372V52.6275C754.242 42.6988 756.583 35.3626 761.264 30.6191C765.946 25.765 773.074 23.3379 782.649 23.3379H838.507C848.082 23.3379 855.158 25.765 859.732 30.6191C864.414 35.3626 866.754 42.6988 866.754 52.6275V62.2252C866.754 64.4317 865.69 65.5348 863.562 65.5348H844.89C842.762 65.5348 841.698 64.4317 841.698 62.2252V56.4336C841.698 52.6826 840.848 49.9798 839.145 48.3251C837.549 46.56 834.942 45.6774 831.325 45.6774H789.353C785.735 45.6774 783.075 46.56 781.372 48.3251C779.777 49.9798 778.979 52.6826 778.979 56.4336V107.732C778.979 111.482 779.777 114.24 781.372 116.006C783.075 117.661 785.735 118.488 789.353 118.488H831.325C834.942 118.488 837.549 117.661 839.145 116.006C840.848 114.24 841.698 111.482 841.698 107.732V101.94C841.698 99.7333 842.762 98.6305 844.89 98.6305H863.562C865.69 98.6305 866.754 99.7333 866.754 101.94V111.372C866.754 121.301 864.414 128.692 859.732 133.547C855.158 138.4 848.082 140.828 838.507 140.828H782.649Z" fill="#FEFEFE"/>
<path d="M1028.86 24.1709C1030.99 24.1709 1032.05 25.2742 1032.05 27.4805V44.0283C1032.05 46.2346 1030.99 47.3377 1028.86 47.3377H988.799C988.447 47.3377 988.16 47.6341 988.16 47.9997V136.696C988.16 138.902 987.1 140.005 984.969 140.005H966.615C964.49 140.005 963.423 138.902 963.423 136.696V47.9997C963.423 47.6341 963.143 47.3377 962.785 47.3377H922.727C920.602 47.3377 919.535 46.2346 919.535 44.0283V27.4805C919.535 25.2742 920.602 24.1709 922.727 24.1709H1028.86Z" fill="#FEFEFE"/>
<path fill-rule="evenodd" clip-rule="evenodd" d="M1087.38 27.2227C1087.38 25.5022 1088.73 24.1074 1090.38 24.1074H1112.31H1163.94C1176.98 24.1074 1187.56 35.0873 1187.56 48.6318V72.0628C1187.56 84.007 1179.33 93.9568 1168.45 96.1412C1168 96.2298 1167.77 96.7455 1167.99 97.1492L1189.42 135.069C1190.67 137.288 1189.13 140.078 1186.64 140.06L1168.01 139.926C1166.22 139.914 1164.56 138.925 1163.66 137.321L1140.65 96.9123C1140.54 96.711 1140.32 96.5873 1140.1 96.5873H1112.95C1112.59 96.5873 1112.31 96.8832 1112.31 97.2492V136.798C1112.31 138.518 1110.96 139.912 1109.31 139.912H1090.38C1088.73 139.912 1087.38 138.518 1087.38 136.798V96.5873V27.2227ZM1112.31 74.0386V46.6656C1112.31 45.9335 1112.88 45.34 1113.58 45.34H1154.27C1158.85 45.34 1162.57 49.1978 1162.57 53.9566V66.7474C1162.57 71.5061 1158.85 75.3644 1154.27 75.3644H1113.58C1112.88 75.3644 1112.31 74.7707 1112.31 74.0386Z" fill="#FEFEFE"/>
<path fill-rule="evenodd" clip-rule="evenodd" d="M1277.89 24.1709C1276.59 24.1709 1275.45 25.0341 1275.05 26.3166L1239.65 136.458C1239.09 138.2 1240.32 140.005 1242.06 140.005H1260.35C1261.64 140.005 1262.8 139.126 1263.2 137.829L1269.68 116.92C1269.77 116.646 1270.02 116.461 1270.3 116.461H1323.69C1323.97 116.461 1324.22 116.646 1324.31 116.92L1330.79 137.829C1331.19 139.126 1332.34 140.005 1333.64 140.005H1351.93C1353.67 140.005 1354.9 138.2 1354.34 136.458L1318.94 26.3167C1318.54 25.0342 1317.4 24.171 1316.1 24.171H1307.86L1302.31 24.1709H1277.89ZM1316.13 93.4459C1316.57 93.4459 1316.87 93.0084 1316.74 92.5807L1302.35 46.2066C1302.23 45.7961 1301.86 45.5179 1301.44 45.5179H1292.54C1292.13 45.5179 1291.76 45.7961 1291.64 46.2066L1277.25 92.5807C1277.12 93.0084 1277.42 93.4459 1277.86 93.4459H1316.13Z" fill="#FEFEFE"/>
</g>
</g>
</g>
<defs>
<clipPath id="clip0_178_443">
<rect width="1125.77" height="164.453" fill="white" transform="translate(244.225)"/>
</clipPath>
</defs>
</svg>
